<svg width="20" height="20" viewBox="0 0 20 20" fill="none" xmlns="http://www.w3.org/2000/svg">
<path d="M8.92527 12.4698C8.62016 12.775 8.62016 13.2696 8.92527 13.5747C9.23035 13.8798 9.72504 13.8798 10.0302 13.5747L13.0524 10.5524C13.3567 10.2482 13.3561 9.75125 13.0524 9.44758L10.0302 6.42531C9.72504 6.12019 9.23035 6.12019 8.92527 6.42531C8.6202 6.73043 8.62016 7.22508 8.92527 7.53015L10.6139 9.21875H0.78125C0.349766 9.21875 0 9.56851 0 10C0 10.4315 0.349766 10.7812 0.78125 10.7812H10.6139L8.92527 12.4698Z" fill="black"/>
<path d="M16.9353 0.302734C16.7873 0.111758 16.5593 0 16.3177 0H6.64062C6.20914 0 5.85938 0.349766 5.85938 0.78125C5.85938 1.21273 6.20914 1.5625 6.64062 1.5625H15.9265C17.6327 3.92719 18.4375 7.00977 18.4375 10C18.4375 12.9889 17.6332 16.072 15.9265 18.4375H6.64062C6.20914 18.4375 5.85938 18.7873 5.85938 19.2188C5.85938 19.6502 6.20914 20 6.64062 20H16.3177C16.5593 20 16.7873 19.8882 16.9353 19.6973C19.0111 17.0184 20 13.4717 20 10C20 6.52867 19.0112 2.98176 16.9353 0.302734Z" fill="black"/>
</svg>
