<svg width="171" height="26" viewBox="0 0 171 26" fill="none" xmlns="http://www.w3.org/2000/svg">
<path d="M4.55 0.989998H14.14C17.3833 0.989998 19.8683 1.78333 21.595 3.37C23.3217 4.93333 24.185 7.29 24.185 10.44C24.185 13.2633 23.66 15.7833 22.61 18C21.56 20.1933 20.0317 21.9083 18.025 23.145C16.0417 24.3817 13.685 25 10.955 25H0.315L4.55 0.989998ZM10.675 20.695C12.4717 20.695 13.9883 20.24 15.225 19.33C16.4617 18.42 17.3833 17.195 17.99 15.655C18.62 14.0917 18.935 12.3417 18.935 10.405C18.935 8.77167 18.4917 7.51167 17.605 6.625C16.7183 5.73833 15.4233 5.295 13.72 5.295H8.855L6.16 20.695H10.675ZM29.8088 0.989998H48.6738L47.9038 5.295H34.1138L33.2038 10.58H45.4538L44.6838 14.885H32.4338L31.4188 20.695H45.4188L44.6488 25H25.5738L29.8088 0.989998ZM51.0885 0.989998H56.2685L58.4735 14.15C58.6135 14.8967 58.8702 16.5533 59.2435 19.12H59.4185C60.6552 16.5533 61.4718 14.8967 61.8685 14.15L68.6585 0.989998H74.1185L61.2035 25H55.5335L51.0885 0.989998ZM82.7982 25.42C79.7882 25.42 77.3149 24.8833 75.3782 23.81C73.4649 22.7133 72.5082 21.1617 72.5082 19.155C72.5082 18.5483 72.6016 17.895 72.7882 17.195H77.9332C77.9099 17.2883 77.8749 17.4633 77.8282 17.72C77.7816 17.9533 77.7582 18.1517 77.7582 18.315C77.7582 19.1783 78.1549 19.8667 78.9482 20.38C79.7649 20.87 80.9199 21.115 82.4132 21.115C84.2799 21.115 85.6332 20.8467 86.4732 20.31C87.3366 19.7733 87.7682 19.0617 87.7682 18.175C87.7682 17.5917 87.5466 17.1017 87.1032 16.705C86.6599 16.285 86.0999 15.9467 85.4232 15.69C84.7466 15.41 83.8249 15.095 82.6582 14.745C81.0249 14.255 79.6949 13.7883 78.6682 13.345C77.6649 12.9017 76.8016 12.26 76.0782 11.42C75.3549 10.58 74.9932 9.50667 74.9932 8.2C74.9932 6.54333 75.4249 5.14333 76.2882 4C77.1749 2.85667 78.3649 2.005 79.8582 1.445C81.3749 0.861666 83.0782 0.57 84.9682 0.57C87.7682 0.57 90.0199 1.04833 91.7232 2.005C93.4499 2.96167 94.3132 4.39666 94.3132 6.31C94.3132 6.75333 94.2549 7.33667 94.1382 8.06H89.0982C89.1682 7.75667 89.2032 7.5 89.2032 7.29C89.2032 6.54333 88.8416 5.96 88.1182 5.54C87.4182 5.09666 86.4382 4.875 85.1782 4.875C83.6149 4.875 82.3899 5.10833 81.5032 5.575C80.6399 6.01833 80.2082 6.63667 80.2082 7.43C80.2082 7.94333 80.4182 8.375 80.8382 8.725C81.2582 9.075 81.7716 9.36667 82.3782 9.6C83.0082 9.81 83.9066 10.09 85.0732 10.44C86.7532 10.93 88.1182 11.4083 89.1682 11.875C90.2416 12.3417 91.1632 13.0067 91.9332 13.87C92.7032 14.71 93.0882 15.795 93.0882 17.125C93.0882 19.0617 92.5982 20.6483 91.6182 21.885C90.6616 23.1217 89.4016 24.02 87.8382 24.58C86.2982 25.14 84.6182 25.42 82.7982 25.42ZM99.843 0.989998H104.918L103.238 10.51H113.668L115.348 0.989998H120.423L116.188 25H111.113L112.898 14.885H102.468L100.683 25H95.608L99.843 0.989998ZM133.152 25.42C129.628 25.42 126.922 24.6383 125.032 23.075C123.142 21.5117 122.197 19.155 122.197 16.005C122.197 14.9317 122.267 13.8933 122.407 12.89C122.757 10.37 123.527 8.18833 124.717 6.345C125.93 4.47833 127.505 3.055 129.442 2.075C131.378 1.07167 133.607 0.57 136.127 0.57C139.65 0.57 142.368 1.36333 144.282 2.95C146.195 4.51333 147.152 6.85833 147.152 9.985C147.152 10.9883 147.082 11.98 146.942 12.96C146.568 15.5033 145.787 17.7083 144.597 19.575C143.407 21.4417 141.832 22.8883 139.872 23.915C137.935 24.9183 135.695 25.42 133.152 25.42ZM133.082 21.115C135.415 21.115 137.293 20.4617 138.717 19.155C140.163 17.825 141.097 15.9467 141.517 13.52C141.773 12.0733 141.902 11.0233 141.902 10.37C141.902 8.62 141.412 7.26667 140.432 6.31C139.475 5.35333 138.052 4.875 136.162 4.875C133.875 4.875 132.008 5.54 130.562 6.87C129.138 8.2 128.217 10.0667 127.797 12.47C127.54 13.9633 127.412 15.0133 127.412 15.62C127.412 17.3933 127.89 18.7583 128.847 19.715C129.803 20.6483 131.215 21.115 133.082 21.115ZM152.343 0.989998H161.688C164.838 0.989998 167.113 1.56167 168.513 2.705C169.936 3.825 170.648 5.48167 170.648 7.675C170.648 10.5683 169.761 12.8083 167.988 14.395C166.215 15.9583 163.776 16.74 160.673 16.74H154.653L153.183 25H148.108L152.343 0.989998ZM160.603 12.435C162.073 12.435 163.24 12.085 164.103 11.385C164.99 10.685 165.433 9.65833 165.433 8.305C165.433 6.29833 164.243 5.295 161.863 5.295H156.648L155.388 12.435H160.603Z" fill="black"/>
</svg>
