<svg width="20" height="20" viewBox="0 0 20 20" fill="none" xmlns="http://www.w3.org/2000/svg">
<g clip-path="url(#clip0)">
<path d="M3.56445 8.08609C3.19244 8.08609 2.89062 7.78442 2.89062 7.41226C2.89062 4.81125 5.00656 2.69531 7.60757 2.69531C7.97974 2.69531 8.2814 2.99713 8.2814 3.36914C8.2814 3.7413 7.97974 4.04297 7.60757 4.04297C5.74982 4.04297 4.23828 5.5545 4.23828 7.41226C4.23828 7.78442 3.93661 8.08609 3.56445 8.08609Z" fill="#484848"/>
<path d="M19.3761 17.1353L13.8597 11.3805C14.2134 10.825 14.4981 10.2267 14.6918 9.59854C14.9095 8.89313 15.0198 8.1575 15.0198 7.41226C15.0198 3.3252 11.6946 0 7.60757 0C3.52051 0 0.195312 3.3252 0.195312 7.41226C0.195312 11.4993 3.52051 14.8245 7.60757 14.8245C8.09296 14.8245 8.5788 14.7772 9.05228 14.6837C9.41711 14.6117 9.65469 14.2574 9.58267 13.8921C9.51065 13.5275 9.15649 13.2866 8.79105 13.3617C8.40378 13.438 8.00568 13.4769 7.60757 13.4769C4.26376 13.4769 1.54297 10.7561 1.54297 7.41226C1.54297 4.06845 4.26376 1.34766 7.60757 1.34766C10.9514 1.34766 13.6722 4.06845 13.6722 7.41226C13.6722 8.02261 13.582 8.62442 13.4039 9.20151C13.0309 10.4112 12.2646 11.4993 11.2459 12.2647C11.2363 12.2719 11.232 12.2827 11.223 12.2903C11.2131 12.2986 11.2004 12.3012 11.1909 12.31C11.1652 12.3343 11.153 12.3659 11.1317 12.3929C11.1044 12.4275 11.076 12.4599 11.0562 12.4983C11.0359 12.538 11.0255 12.579 11.0136 12.6213C11.0019 12.6625 10.9891 12.7016 10.9854 12.7441C10.9816 12.7875 10.9874 12.829 10.992 12.8723C10.9962 12.915 10.9991 12.9564 11.0118 12.9982C11.0248 13.0411 11.048 13.0792 11.0698 13.1194C11.0855 13.1485 11.0916 13.1807 11.1121 13.208C11.1195 13.2179 11.131 13.2225 11.1389 13.2318C11.1469 13.2414 11.1491 13.2533 11.1578 13.2625L16.9835 19.5074C17.3117 19.8358 17.7432 20 18.1749 20C18.6063 20 19.0376 19.8358 19.366 19.5074C20.023 18.8507 20.023 17.7818 19.3761 17.1353ZM18.4129 18.5547C18.2814 18.6856 18.0682 18.6862 17.9527 18.5713L12.6254 12.8601C12.7646 12.7315 12.8986 12.5983 13.0273 12.4596L18.4129 18.0779C18.5443 18.2095 18.5443 18.423 18.4129 18.5547Z" fill="#484848"/>
</g>
<defs>
<clipPath id="clip0">
<rect width="20" height="20" fill="white"/>
</clipPath>
</defs>
</svg>
